<svg width="595" height="618" viewBox="0 0 595 618" fill="none" xmlns="http://www.w3.org/2000/svg">
<path d="M567.776 865.539L494.757 539.007C490.29 518.082 512.002 490.959 532.984 486.79C556.321 482.157 578.197 499.676 578.782 523.465L603.028 853.873L567.776 865.539Z" fill="#F4A087"/>
<path d="M520.705 373.849C520.705 373.849 606.481 407.535 606.481 593.754L463.932 599.274L520.705 373.849Z" fill="#172541"/>
<path d="M68.5905 559.843L254.815 470.903L162.481 415.947L79.7869 467.175L68.5905 559.843Z" fill="#F4A087"/>
<path d="M202.648 373.849C164.027 394.778 93.1383 458.091 93.1383 458.091L148.05 583.63L277.596 529.545L202.648 373.849Z" fill="#172541"/>
<path d="M103.143 269.922L67.1109 256.959L3.293 508.5C-5.66661 535.434 12.7511 563.705 41.0026 566.383C64.4935 568.61 85.5785 551.964 88.8694 528.595L103.143 269.922Z" fill="#F4A087"/>
<path d="M103.143 269.922L120.328 250.947C129.296 241.043 135.812 229.169 139.35 216.283L145.578 193.602C147.058 188.211 143.339 182.783 137.778 182.219C133.083 181.741 128.569 184.168 126.374 188.346L114.764 210.448L111.529 112.734C111.477 108.518 107.738 105.304 103.562 105.889L100.763 106.281C97.4649 106.744 94.9486 109.468 94.7489 112.792L94.8503 170.715L85.5335 104.195C85.2086 100.004 81.2909 97.0446 77.1734 97.8768L75.1347 98.2892C71.6706 98.9915 69.2739 102.16 69.5441 105.684L77.1899 175.186L60.8512 120.784C59.6655 116.473 54.7981 114.363 50.8444 116.448L50.0472 116.867C47.3357 118.297 45.8709 121.323 46.4292 124.337L57.3083 182.948L46.1588 148.408C44.5748 143.5 38.4047 141.936 34.6725 145.494C32.8983 147.189 32.139 149.69 32.6746 152.085L61.6124 281.635L103.143 269.922Z" fill="#F4A087"/>
<path d="M114.764 210.448C114.764 210.448 95.8946 214.817 86.038 236.966" stroke="#E07F6B" stroke-width="2" stroke-miterlimit="10" stroke-linecap="round" stroke-linejoin="round"/>
<path d="M93.0348 462.872L89.2052 510.781" stroke="#E07F6B" stroke-width="2" stroke-miterlimit="10" stroke-linecap="round" stroke-linejoin="round"/>
<path d="M468.176 350.475L520.705 373.849L510.869 792.011C510.869 792.011 364.946 819.892 206.177 792.011L202.648 373.849L258.866 350.265L468.176 350.475Z" fill="#172541"/>
<path d="M514.219 596.513L517.285 468.03" stroke="#040606" stroke-width="2.32835" stroke-miterlimit="10" stroke-linecap="round" stroke-linejoin="round"/>
<path d="M207.526 558.801L205.774 462.857" stroke="#040606" stroke-width="2.32835" stroke-miterlimit="10" stroke-linecap="round" stroke-linejoin="round"/>
<path d="M366.029 306.187L468.176 350.475C468.176 350.475 363.226 445.34 258.866 350.265L366.029 306.187Z" fill="#F4A087"/>
<path d="M397.84 41.8348C397.84 41.8348 447.423 19.7352 464.998 61.5226C481.917 101.75 414.718 140.089 414.718 140.089L397.84 41.8348Z" fill="url(#paint0_linear_11_83)"/>
<path d="M433.575 67.4055C433.575 67.4055 424.075 107.661 448.74 130.143V74.4055L433.575 67.4055Z" fill="#040606"/>
<path d="M459.157 94.8054C459.157 209.003 416.982 216.392 364.956 216.392C292.579 216.392 267.295 147.891 267.295 97.1447C267.295 46.4006 312.931 32.6281 364.956 32.6281C416.982 32.6281 459.157 44.0614 459.157 94.8054Z" fill="#040606"/>
<path d="M285.496 160.142C285.496 160.142 270.773 148.701 260.011 162.286C243.662 182.933 272.274 220.322 297.159 201.071L285.496 160.142Z" fill="#F4A087"/>
<path d="M270.602 174.009C270.602 174.009 278.838 171.42 287.739 188.768" stroke="#040606" stroke-width="1.27826" stroke-miterlimit="10" stroke-linecap="round" stroke-linejoin="round"/>
<path d="M442.414 160.142C442.414 160.142 457.137 148.701 467.899 162.286C484.248 182.933 455.636 220.322 430.753 201.071L442.414 160.142Z" fill="#F4A087"/>
<path d="M457.31 174.009C457.31 174.009 449.076 171.42 440.173 188.768" stroke="#040606" stroke-width="1.27826" stroke-miterlimit="10" stroke-linecap="round" stroke-linejoin="round"/>
<path d="M335.866 248.218L328.728 336.927H402.058L391.722 247.157L335.866 248.218Z" fill="#F4A087"/>
<path d="M335.054 254.78C337.509 255.974 395.389 282.482 395.389 282.482L391.722 247.157L335.054 254.78Z" fill="#040606"/>
<path d="M285.346 114.236C285.346 114.236 273.241 261.953 361.703 263.726C457.308 265.641 445.24 114.236 445.24 114.236C445.24 114.236 444.713 50.3567 364.573 50.3567C291.112 50.3567 285.346 114.236 285.346 114.236Z" fill="#F4A087"/>
<path d="M336.587 161.041C336.587 164.805 333.54 167.854 329.777 167.854C326.017 167.854 322.968 164.805 322.968 161.041C322.968 157.28 326.017 154.231 329.777 154.231C333.54 154.231 336.587 157.28 336.587 161.041Z" fill="#040606"/>
<path d="M404.652 161.041C404.652 164.805 401.601 167.854 397.84 167.854C394.081 167.854 391.031 164.805 391.031 161.041C391.031 157.28 394.081 154.231 397.84 154.231C401.601 154.231 404.652 157.28 404.652 161.041Z" fill="#040606"/>
<path d="M303.23 137.267L348.923 133.147C348.923 133.147 344.832 121.306 326.359 123.228C307.456 125.192 303.23 137.267 303.23 137.267Z" fill="#040606"/>
<path d="M424.075 137.267L378.382 133.147C378.382 133.147 382.475 121.306 400.949 123.228C419.853 125.192 424.075 137.267 424.075 137.267Z" fill="#040606"/>
<path d="M359.396 169.838L357.207 189.207L365.265 189.357" stroke="#040606" stroke-width="1.27826" stroke-miterlimit="10" stroke-linecap="round" stroke-linejoin="round"/>
<path d="M334.591 201.871H387.883C387.883 201.871 384.281 217.775 361.538 217.775C338.796 217.775 334.591 201.871 334.591 201.871Z" fill="white"/>
<path d="M278.932 156.743L288.764 176.456L285.346 114.236L278.932 156.743Z" fill="#040606"/>
<path d="M445.729 123.015L442.667 176.456L453.612 155.638L445.729 123.015Z" fill="#040606"/>
<g filter="url(#filter0_i_11_83)">
<path d="M437.353 83.0999C437.353 83.0999 407.637 109.62 369.571 89.2426C369.571 89.2426 272.725 148.916 245.389 83.9546C222.601 29.7968 317.204 -43.7014 414.803 39.1183L437.353 83.0999Z" fill="url(#paint1_linear_11_83)"/>
</g>
<defs>
<filter id="filter0_i_11_83" x="241.959" y="1.8719" width="195.394" height="116.392" filterUnits="userSpaceOnUse" color-interpolation-filters="sRGB">
<feFlood flood-opacity="0" result="BackgroundImageFix"/>
<feBlend mode="normal" in="SourceGraphic" in2="BackgroundImageFix" result="shape"/>
<feColorMatrix in="SourceAlpha" type="matrix" values="0 0 0 0 0 0 0 0 0 0 0 0 0 0 0 0 0 0 127 0" result="hardAlpha"/>
<feOffset dy="4"/>
<feGaussianBlur stdDeviation="2"/>
<feComposite in2="hardAlpha" operator="arithmetic" k2="-1" k3="1"/>
<feColorMatrix type="matrix" values="0 0 0 0 0 0 0 0 0 0 0 0 0 0 0 0 0 0 0.25 0"/>
<feBlend mode="normal" in2="shape" result="effect1_innerShadow_11_83"/>
</filter>
<linearGradient id="paint0_linear_11_83" x1="432.785" y1="35.9956" x2="432.785" y2="140.089" gradientUnits="userSpaceOnUse">
<stop stop-color="#0E0E0E"/>
<stop offset="1" stop-color="#070707"/>
</linearGradient>
<linearGradient id="paint1_linear_11_83" x1="222" y1="-46.5" x2="339.656" y2="114.264" gradientUnits="userSpaceOnUse">
<stop stop-color="#5F5B5B"/>
<stop offset="1" stop-color="#131212"/>
</linearGradient>
</defs>
</svg>
